<?xml version="1.0" encoding="UTF-8"?>
<svg width="598px" height="185px" viewBox="0 0 598 185" version="1.1" xmlns="http://www.w3.org/2000/svg" xmlns:xlink="http://www.w3.org/1999/xlink">
    <!-- Generator: Sketch 50.2 (55047) - http://www.bohemiancoding.com/sketch -->
    <title>Page 1</title>
    <desc>Created with Sketch.</desc>
    <defs>
        <polygon id="path-1" points="0.345536667 0.349572897 22.8551 0.349572897 22.8551 40.6686664 0.345536667 40.6686664"></polygon>
    </defs>
    <g id="Symbols" stroke="none" stroke-width="1" fill="none" fill-rule="evenodd">
        <g id="anncode-black">
            <g id="Page-1">
                <path d="M189.95345,114.213854 L100,41 L100,74.9047466 L117.566973,88.4247693 L117.566973,73.5572664 C119.27796,75.4952668 121.082594,77.3473871 122.98126,79.1128675 C124.878774,80.8791078 126.84422,82.5587081 128.876833,84.1512885 L205,143 L205,126.883817 L205,126.460497 L205,113.599014 L189.95345,102.121492 L189.95345,114.213854 Z" id="Fill-3" fill="#000000"></path>
                <path d="M62.5669733,73.5572664 C64.2779599,75.4952668 66.0825941,77.3473871 67.9812595,79.1128675 C69.8787736,80.8791078 71.8442205,82.5583281 73.8768327,84.1512885 L91.285296,97.6089911 L62.5669733,97.6089911 L62.5669733,73.5572664 Z M45,139.318179 L62.5669733,139.318179 L62.5669733,111.149534 L108.800072,111.149534 L150,143 L150,126.460117 L45,41 L45,139.318179 Z" id="Fill-5" fill="#000000"></path>
                <path d="M240.352812,110.313534 C238.053074,107.987933 235.860801,105.899833 233.775224,104.047712 C231.690031,102.196352 229.630553,100.452152 227.599092,98.8151113 L153,41 L153,56.511983 L153,59.4756036 L153,73.8228864 L168.023905,86.3754289 L168.023905,71.426226 L258,143 L258,59.7834037 L240.352812,46.322281 L240.352812,110.313534 Z" id="Fill-7" fill="#000000"></path>
                <polygon id="Fill-9" fill="#000000" points="303 139.969575 303 0 103.555289 0 88 6.85875077 296.126928 6.85875077 296.126928 143"></polygon>
                <polygon id="Fill-11" fill="#000000" points="215 178.141249 6.87307194 178.141249 6.87307194 42 0 45.0304247 0 185 199.444329 185"></polygon>
                <path d="M382.636332,76.6777214 C380.753817,75.1119494 378.76473,73.9379054 376.667904,73.1552094 C374.571467,72.3721334 372.36729,71.9807854 370.056542,71.9807854 C365.583624,71.9807854 361.945003,73.3827991 359.140288,76.1860667 C356.335185,78.9897142 354.933023,82.6220316 354.933023,87.0822591 C354.933023,91.3969658 356.297846,94.9563329 359.02866,97.7596005 C361.758307,100.563248 365.201676,101.965262 369.3576,101.965262 C371.780366,101.965262 374.086447,101.546557 376.276232,100.709149 C378.466406,99.8717399 380.567899,98.606128 382.580324,96.913073 L382.580324,104.259017 C380.791545,105.51513 378.843687,106.452846 376.737915,107.071783 C374.631754,107.690341 372.34901,108 369.888905,108 C366.757862,108 363.864468,107.499227 361.208721,106.498439 C358.552975,105.497273 356.21889,104.022688 354.206077,102.074307 C352.211544,100.162781 350.679083,97.9100605 349.607528,95.3157652 C348.535583,92.7214699 348,89.9588569 348,87.0275463 C348,84.0966157 348.535583,81.3431216 349.607528,78.7670638 C350.679083,76.1910061 352.230603,73.9291666 354.262085,71.9807854 C356.293179,70.0145466 358.622986,68.5259044 361.250728,67.5159986 C363.87847,66.5053329 366.720134,66 369.776888,66 C372.180984,66 374.47384,66.3415746 376.653902,67.0243439 C378.834741,67.7071132 380.949459,68.7401959 383,70.1235922 L382.636332,76.6777214 Z" id="Fill-13" fill="#000000"></path>
                <path d="M502.509772,102.125619 L507.980568,102.125619 C510.989411,102.125619 513.246233,101.925663 514.750655,101.52461 C516.255076,101.124317 517.5635,100.44994 518.675927,99.5026182 C520.189102,98.209745 521.324364,96.6021117 522.081332,94.6804786 C522.837538,92.7588455 523.216213,90.5232126 523.216213,87.9728196 C523.216213,85.4228068 522.837538,83.1871739 522.081332,81.2651607 C521.324364,79.3435276 520.189102,77.7362744 518.675927,76.4426409 C517.544852,75.4960798 516.190759,74.8217025 514.614028,74.4210296 C513.036155,74.0203568 510.569634,73.8200203 507.214466,73.8200203 L504.8625,73.8200203 L502.509772,73.8200203 L502.509772,102.125619 Z M496,108 L496,68 L504.780295,68 C510.48781,68 514.504421,68.2870095 516.829367,68.8606483 C519.154313,69.4342872 521.192303,70.3956739 522.942578,71.7432881 C525.258389,73.5102021 527.013992,75.7781474 528.208243,78.5467436 C529.402494,81.3153398 530,84.4754854 530,88.0275605 C530,91.5792555 529.402494,94.726096 528.208243,97.4673218 C527.013992,100.208928 525.258389,102.471931 522.942578,104.256712 C521.192303,105.605086 519.199602,106.565713 516.965994,107.139352 C514.732007,107.712991 511.253532,108 506.530569,108 L504.780295,108 L496,108 Z" id="Fill-15" fill="#000000"></path>
                <g id="Group-19" transform="translate(575.000000, 67.000000)">
                    <mask id="mask-2" fill="white">
                        <use xlink:href="#path-1"></use>
                    </mask>
                    <g id="Clip-18"></g>
                    <polygon id="Fill-17" fill="#000000" mask="url(#mask-2)" points="0.345536667 40.6686664 0.345536667 0.349572897 22.8552533 0.349572897 22.8552533 5.91254486 6.90245333 5.91254486 6.90245333 16.0200028 16.6387367 16.0200028 16.6387367 21.7760963 6.90245333 21.7760963 6.90245333 34.8022178 22.8552533 34.8022178 22.8552533 40.6686664"></polygon>
                </g>
                <path d="M454.185799,86.9998098 C454.185799,84.9766026 453.814601,83.0534525 453.072972,81.2303595 C452.33096,79.4076469 451.264007,77.7850485 449.872113,76.3633251 C448.516536,74.959863 446.946116,73.8797793 445.160088,73.1226936 C443.37406,72.3667491 441.492079,71.9882062 439.513762,71.9882062 C437.535063,71.9882062 435.653082,72.3618033 433.867437,73.109378 C432.081791,73.8569526 430.492257,74.9412212 429.100363,76.3633251 C427.708087,77.7667871 426.645339,79.3802549 425.913266,81.2029675 C425.180047,83.0260605 424.814201,84.9587217 424.814201,86.9998098 C424.814201,89.0233974 425.180047,90.9374168 425.913266,92.7422484 C426.645339,94.5466996 427.708087,96.1601674 429.100363,97.5818908 C430.492257,99.0039947 432.076821,100.088644 433.853292,100.835838 C435.630145,101.583413 437.516714,101.95701 439.513762,101.95701 C441.473347,101.95701 443.336978,101.583413 445.105039,100.835838 C446.872335,100.088644 448.461105,99.0039947 449.872113,97.5818908 C451.264007,96.1601674 452.33096,94.5425147 453.072972,92.7285524 C453.814601,90.9149705 454.185799,89.0055165 454.185799,86.9998098 M461,86.9998098 C461,89.8436371 460.464421,92.5326232 459.392498,95.0663877 C458.320958,97.6001522 456.758948,99.8607571 454.707998,101.847442 C452.637551,103.834506 450.302182,105.357048 447.701508,106.413924 C445.100069,107.471181 442.371331,108 439.513762,108 C436.619112,108 433.857879,107.466616 431.229681,106.400228 C428.601101,105.333841 426.279111,103.816245 424.264478,101.847442 C422.212763,99.8607571 420.655723,97.6092829 419.593739,95.0933993 C418.530992,92.5778961 418,89.8801598 418,86.9998098 C418,84.1381016 418.530992,81.4399848 419.593739,78.9062203 C420.655723,76.3724558 422.212763,74.1031006 424.264478,72.097394 C426.315811,70.1107095 428.642387,68.5972988 431.243061,67.5583032 C433.844117,66.5193076 436.601145,66 439.513762,66 C442.407647,66 445.150531,66.5193076 447.742794,67.5583032 C450.334676,68.5972988 452.656283,70.1107095 454.707998,72.097394 C456.758948,74.1206011 458.320958,76.4040327 459.392498,78.9469279 C460.464421,81.4902035 461,84.1746243 461,86.9998098" id="Fill-20" fill="#000000"></path>
            </g>
        </g>
    </g>
</svg>